<?xml version="1.0" encoding="utf-8"?><svg xmlns="http://www.w3.org/2000/svg" xmlns:xlink="http://www.w3.org/1999/xlink"><symbol viewBox="0 0 50 39" id="arrow-left" xmlns="http://www.w3.org/2000/svg"><path d="M13.542 38.542 0 25l13.542-13.542 1.473 1.473L3.987 23.958H50v2.084H3.987l11.028 11.027-1.473 1.473z"/></symbol><symbol viewBox="0 0 50 39" id="arrow-right" xmlns="http://www.w3.org/2000/svg"><path d="M36.458 38.542 50 25 36.458 11.458l-1.473 1.473 11.028 11.027H0v2.084h46.013L34.985 37.069l1.473 1.473z"/></symbol><symbol viewBox="0 0 110 130" id="basket" xmlns="http://www.w3.org/2000/svg"><path d="M107.523 72.15c2.571-3.564 3.329-8.303 1.037-12.51a10.699 10.699 0 0 0-1.221-1.776c.064-.079.122-.17.173-.272 1.886-3.807 1.399-8.59-1.598-11.71-1.567-1.63-3.72-2.592-5.935-2.792-.508-10.264-2.618-20.88-8.911-29.26C85.145 5.946 76.413 1.83 66.78.534c-4.883-.658-9.848-.65-14.754-.283-5.093.38-10.201 1.212-15.02 2.947-8.965 3.23-16.203 9.552-20.953 17.782-5.958 10.321-7.37 22.529-6.717 34.257C3.907 57.31-.345 62.52.107 68.623c.2 2.702 1.432 5.053 3.389 6.666-.003.018-.01.034-.012.052-.391 3.123-.585 6.804 1.923 9.156 1.02.957 2.278 1.484 3.63 1.77-.863 9.754-.963 20.115 3.91 28.898 2.216 3.992 5.43 7.38 9.495 9.511 4.571 2.396 9.75 3.312 14.814 3.997 11.24 1.521 22.631 1.547 33.943 1.007 5.096-.243 10.511-.27 15.367-2.019 4.229-1.523 7.597-4.423 9.868-8.288 2.558-4.354 3.599-9.374 3.973-14.359.237-3.151.23-6.313.263-9.47.032-3.08.243-6.123.506-9.184 2.572-.25 5.013-1.017 6.592-3.342 2.19-3.228 1.306-7.556-.229-10.84l-.016-.028zm-3.482-24.67c2.129 2.218 2.527 5.714 1.18 8.425-1.679-1.204-3.679-1.953-5.71-1.92.643-3.14-.677-6.128-2.742-8.734l-.051-.063c2.64-.39 5.417.305 7.323 2.292zM25.468 69.708c2.534 2.167 6.36.643 7.297-2.365.698-2.238-3.184-2.89-3.214-.435-.009.757-.775 1.266-1.474 1.39-1.217.213-2.17-.87-2.444-1.954-.685-2.705 2.243-4.518 4.58-4.545 4.515-.053 10.42 5.057 7.627 9.808-2.407 4.093-8.638 5.818-12.976 4.418-5.038-1.625-7.156-6.834-5.574-11.717.915-2.827 2.892-5.18 5.056-7.155 2-1.827 4.448-3.264 7.181-3.27.075.198.154.397.24.593 1.6 3.641 4.977 6.29 8.925 6.735-.544 1.162-1.002 2.373-1.27 3.585-2.84-4.338-9.25-6.89-13.504-3.437-2.517 2.043-3.065 6.113-.45 8.349zM54.44 28.716c-3.315.579-6.979 2.87-9.076 5.68-2.153-2.105-5.286-3.232-8.309-2.935-4.81.472-8.638 3.786-10.122 8.286a13.1 13.1 0 0 0-3.6.477c1.865-5.188 4.103-10.21 7.484-14.622 3.656-4.77 8.432-8.806 14.051-11.052 11.553-4.617 25.18-2.374 33.444 7.266 4.112 4.796 6.504 10.968 6.4 17.298-1.722.274-3.34 1.032-4.585 2.266-1.453-3.635-4.663-6.27-8.286-7.624a15.974 15.974 0 0 0-7.652-.861 1.487 1.487 0 0 0-.14-.286c-2.057-3.291-5.887-4.543-9.609-3.893zm6.977 4.846c-.95.334-1.862.77-2.708 1.325-2.668 1.753-4.765 4.768-5.076 7.981a17.917 17.917 0 0 0-2.642-2.606 15.143 15.143 0 0 0-3.257-1.988 8.775 8.775 0 0 0-1.165-2.44c.955-.709 1.824-1.55 2.802-2.226 1.345-.928 2.824-1.73 4.402-2.174 2.757-.777 5.922-.267 7.644 2.128zM44.37 37.299a11.957 11.957 0 0 0-4.03.115c-2.797.557-5.108 2.063-6.763 4.091a13.767 13.767 0 0 0-4.967-1.647c1.896-2.87 4.622-5.287 8.123-5.834 3.116-.486 6.029.785 7.637 3.275zm-11.947 5.887a12.804 12.804 0 0 0-1.346 3.415c-1.996-2.99-6.558-3.595-8.903-.318-1.178 1.648-1.241 3.977.355 5.392 1.499 1.328 3.624.762 4.735-.72 1.012-1.351-1.756-2.729-2.2-.928-.196.797-1.116.709-1.595.189-.41-.444-.465-1.132-.319-1.684.308-1.165 1.365-1.945 2.462-2.293 2.058-.653 4.08.364 5.01 2.257a.553.553 0 0 0 .144.185 12.403 12.403 0 0 0 .354 3.914c-2.855-.424-5.695 1.018-7.945 2.767a21.294 21.294 0 0 0-2.945 2.765 1.173 1.173 0 0 0-.111-.112c-3.664-3.227-4.445-8.526-1.098-12.282 3.425-3.844 8.823-4.439 13.402-2.547zm1.132 8.557c-.995-3.737.633-7.937 3.896-10.017 3.296-2.102 7.27-2.085 10.63-.13 3.342 1.946 5.694 5.223 7.813 8.423a10.334 10.334 0 0 0-3.412.512c-.075.025-.149.052-.223.079a8.851 8.851 0 0 0-1.805.295c-.21-2.882-1.529-5.63-4.257-6.952-2.865-1.389-6.523-.641-8.04 2.316-1.2 2.342-.635 5.843 2.083 6.847 2.995 1.107 5.522-2.658 2.781-4.659-1.391-1.016-2.815 1.358-1.364 2.334.499.334-.7.518-.785.5-.415-.084-.832-.562-1.033-.904-.355-.603-.371-1.348-.218-2.013.362-1.573 1.64-2.542 3.221-2.676 3.394-.288 5.537 2.732 6.218 5.705-2.543 1.135-4.651 3.338-6.158 5.802-.37.603-.73 1.213-1.08 1.829a1.149 1.149 0 0 0-.234-.09c-3.624-.957-7.03-3.436-8.033-7.2zm8.868 13.49c.419-2.026 1.25-4.173 2.098-6.059a17.327 17.327 0 0 1 1.868-3.202 10.743 10.743 0 0 0-1.104 4.453c-.098 4.142 2.792 8.908 7.404 8.63 4.84-.29 8.55-5.826 6-10.258-1.206-2.094-4.039-3.236-6.2-1.826-1.977 1.29-2.227 4.14-.629 5.81 1.252 1.308 3.321-.804 1.971-1.97-.486-.42-.598-1.038-.234-1.608.496-.78 1.589-.728 2.33-.372 1.913.917 1.817 3.621.947 5.228-1.582 2.92-5.482 4.087-7.9 1.485-2.36-2.54-2.157-6.475-.361-9.263a7.946 7.946 0 0 1 8.536-3.43c7.101 1.676 7.932 10.882 4.825 16.367-1.8 3.18-5.117 4.263-8.63 3.878-1.784-.195-3.535-.75-5.252-1.25-1.483-.433-3.066-.89-4.31-1.851-1.529-1.18-1.731-2.958-1.359-4.761zm20.264-12.735a.77.77 0 0 0-.21-.515c-2.828-3.138-.785-7.666 2.63-9.303 1.575-.755 4.159-1.111 5.32.553.495.71.587 1.66.33 2.476-.115.362-.295.731-.558 1.012-.114.122-1.33 1.007-1.375.454-.138-1.742-2.844-1.778-2.745 0 .096 1.718 1.536 2.959 3.287 2.62 1.473-.284 2.65-1.51 3.13-2.898 1.01-2.924-.786-6.038-3.818-6.604-5.896-1.1-11.196 5.389-8.956 10.49a11.22 11.22 0 0 0-1.594-.492c-.91-1.855-1.862-3.697-2.996-5.403.432-3.396 2.102-6.393 5.132-8.139 3.225-1.858 7.28-1.868 10.71-.589 2.975 1.11 5.78 3.408 6.83 6.483a8.417 8.417 0 0 1 .29 4.41c-.353 1.677-1.241 2.786-2.2 4.143a1.014 1.014 0 0 0-.183.48 12.288 12.288 0 0 0-3.942.682c-2.654.934-4.591 2.903-5.471 5.421a12.388 12.388 0 0 0-1.635-3.2 10.712 10.712 0 0 0-1.976-2.081zm3.295 16.271c.451-1.118.771-2.322.953-3.561a8.198 8.198 0 0 0 3.23 3.17c3.3 1.77 7.772 1.585 10.386-1.321 1.318-1.465 1.946-3.542 1.153-5.41-.743-1.75-2.508-3.096-4.46-2.892-2.262.237-1.65 3.634.404 2.986 1.497-.472 2.322 1.253 1.953 2.506-.406 1.38-1.737 2.383-3.047 2.831-2.296.786-4.978.163-6.711-1.526-1.865-1.815-2.22-4.675-1.204-7.022 1.064-2.454 3.621-3.773 6.192-4.014 5.082-.475 10.666 2.644 12.236 7.644 1.482 4.724-1.058 10.135-5.916 11.48-1.633.453-3.297.507-4.98.532-1.623.025-3.259.095-4.88-.024-2.347-.172-5.541-1.444-6.071-3.81.29-.504.544-1.028.762-1.569zm17.119-15.142c.002-2.43 1.154-5.018 3.743-5.562 1.12-.236 2.267.037 3.028.93.373.437.67 1.04.692 1.622.025.323-.037.646-.179.937-.343.127-.555.227-.645.301-.644-1.343-2.943-.638-2.365.804.93 2.324 3.727 2.028 4.76-.082.952-1.944.061-4.398-1.604-5.637-1.837-1.365-4.42-1.184-6.241.114-1.91 1.362-2.734 3.573-2.689 5.835a15.238 15.238 0 0 0-2.965-.933c1.995-2.08 2.573-5.491 2.107-8.36.023-.026.048-.048.07-.077 1.643-2.185 4.719-2.644 7.216-1.904 2.758.816 4.938 2.965 6.66 5.18 1.873 2.408 3.14 5.224 1.587 8.146-.705 1.325-1.838 2.371-3.126 3.119-1.272.738-2.672.992-4.002 1.563-.038.016-.069.037-.103.056-1.28-2.536-3.418-4.638-5.944-6.052zM33.988 6.267c8.593-4.07 19.039-4.607 28.385-3.883 9.06.702 18.12 3.494 24.376 10.409 7.491 8.283 9.65 19.698 10.262 30.498a8.687 8.687 0 0 0-1.5.495c-2.092-2.252-4.716-4.16-7.768-4.662l-.015-.002c.001-12.76-9.151-24.366-21.305-27.932-12.996-3.814-27.243.84-36.108 10.902-4.541 5.155-7.909 11.784-8.545 18.684a11.87 11.87 0 0 0-4.731 3.671c-2.17 2.817-2.945 6.516-2.185 9.836a13.863 13.863 0 0 0-3.777.408c.567-18.177 4.78-39.834 22.911-48.424zM2.491 67.61c.117-6.664 6.512-11.471 12.742-12.044a9.973 9.973 0 0 0 3.287 4.522c.048.037.097.068.146.096a15.988 15.988 0 0 0-1.43 2.713c-1.347-1.363-3.235-2.165-5.189-1.96-2.53.264-4.784 2.095-5.551 4.527-.76 2.41.307 5.437 3.072 5.787 2.468.313 4.3-2.343 3.144-4.528-.84-1.586-3.402-.061-2.389 1.396.345.495.313 1.094-.389 1.28-.995.263-1.755-.896-1.89-1.678-.255-1.466.562-2.95 1.674-3.859 2.151-1.755 5.25-1.26 6.923.822-.65 2.558-.426 5.094.478 7.32-1.53.825-2.796 1.953-4.499 2.5-1.513.487-3.133.652-4.69.276-3.416-.825-5.5-3.694-5.44-7.17zm8.679 31.555c3.566.73 7.266.989 10.872 1.309 4.318.383 8.653.635 12.986.74.026.001.048-.004.073-.005l.004.058a57.48 57.48 0 0 0 .785 5.872c-7.85-.769-15.758-1.289-23.646-1.368-.523-2.158-.86-4.369-1.074-6.606zm84.138 15.219c-1.369 3.776-3.705 7.284-7.23 9.34-4.12 2.403-9.08 2.684-13.726 3.005-10.586.73-21.218.989-31.798.008-9.462-.878-19.674-2.238-25.64-10.506-2.074-2.873-3.446-5.989-4.355-9.244 7.857 1.142 15.798 1.861 23.72 2.321.017.001.032-.002.05-.002.347 1.549.843 3.224 2.17 4.172 1.795 1.282 3.668.302 5.368-.619l5.925-3.215c-1.003 2.41-2.266 4.729-3.85 6.785-.353.457-.071 1.216.386 1.474 1.727.975 3.53 1.921 5.403 2.589 1.544.552 3.166.547 4.389-.678.307-.307.585-.652.842-1.019.252.273.634.408 1.11.243 2.34-.815 4.686-1.617 7.02-2.449.867-.309 1.18-1.323.534-2.023-1.224-1.326-2.215-2.994-3.12-4.649a306.15 306.15 0 0 1 4.653 2.165c1.247.596 2.485 1.216 3.743 1.79.868.396 1.762.759 2.734.567 2.306-.456 2.484-3.107 2.755-4.991 3.223.372 6.5.434 9.736.388 3.493-.05 7.102-.097 10.565-.663a32.072 32.072 0 0 1-1.384 5.211zM37.772 94.127c.798.468 1.614.91 2.418 1.368 3.161 1.8 6.334 3.69 9.38 5.681-.057.139-.108.28-.156.422-.587 1.789-.386 3.536.383 4.969l-5.096 2.922c-.933.535-1.86 1.083-2.8 1.605-.629.349-1.38.853-2.078.388-1.109-.74-1.345-3.057-1.602-4.219a42.404 42.404 0 0 1-.877-5.997c-.14-1.867-.17-3.73-.057-5.6.025-.423.079-.848.093-1.272.02-.676-.169-.596.392-.267zm25.64 5.582c3.16-1.474 6.135-3.407 9.048-5.304.543-.353 1.546-1.346 2.013-.67.357.518.132 1.947.141 2.56a66.17 66.17 0 0 1-.158 5.628 59.852 59.852 0 0 1-1.15 8.238c-.22 1.038-.144 1.489-1.285 1.056-3.298-1.252-6.525-2.724-9.76-4.139a7.304 7.304 0 0 0 1.387-2.519c.506-1.614.383-3.34-.237-4.85zm-4.246 6.604c-2.635 1.771-7.371 1.486-8.012-2.286-.305-1.795.313-3.273 1.4-4.397.109-.111.221-.22.337-.324a8.063 8.063 0 0 1 1.906-1.249c1.485-.644 3.161-.663 4.716.402 2.768 1.896 2.26 6.102-.347 7.854zm4.008 8.393c-1.635.58-3.268 1.164-4.9 1.752.232-.487.451-.972.666-1.434.73-1.576 1.45-3.228 1.927-4.914.775 1.527 1.622 3.042 2.307 4.596zm-11.56-6.058a6.886 6.886 0 0 0 3.038 1.246 8.371 8.371 0 0 0 3.8-.304c-.96 2.543-1.916 5.021-3.314 7.39-.347.588-.71 1.389-1.466 1.517-.61.103-1.394-.274-1.94-.481a36.82 36.82 0 0 1-3.395-1.505c1.334-2.54 2.472-5.112 3.278-7.863zm45.844-7.575c-.059 1.914-.174 3.815-.404 5.696-.015.001-.03-.002-.045-.001-3.635.245-7.24.848-10.883 1.079-3.19.203-6.382.244-9.573.373a70.078 70.078 0 0 0 .574-7.454c3.383.286 6.779.401 10.173.345a94.12 94.12 0 0 0 5.544-.272c1.518-.116 3.113-.167 4.63-.433-.004.223-.01.445-.016.667zm.055-2.883c-1.64.09-3.302.418-4.932.578-1.845.18-3.695.322-5.545.445a164.04 164.04 0 0 1-9.891.34 54.567 54.567 0 0 0-.218-5.47c-.157-1.67-.97-3.381-2.946-3.154-1.038.12-1.91.817-2.744 1.384-1.08.734-2.141 1.496-3.206 2.254-1.786 1.27-3.563 2.56-5.2 4.018-.802-1.27-1.999-2.286-3.491-2.786-3.403-1.14-6.607.585-8.476 3.294-.26.288-.495.598-.703.925-3.584-3.085-7.36-6.087-11.569-8.296-1.766-.927-3.357-.18-3.591 1.838-.211 1.817-.167 3.732-.05 5.603a348.185 348.185 0 0 1-12.645-.518c-3.741-.227-7.498-.71-11.25-.813-.283-3.764-.266-7.583-.258-11.318 1.652.133 3.35.04 4.861.022 9.064-.106 18.132-.304 27.197-.313 18.13-.017 36.262.196 54.393.254.352 0 .71.002 1.07 0-.754 3.821-.758 7.8-.806 11.713zm7.257-16.547c-2.019 2.465-6.624 1.832-9.406 1.855-8.169.068-16.336.14-24.504.257-16.16.233-32.307.358-48.47.286l-7-.032c-1.828-.008-3.722.132-5.532-.183-1.879-.327-3.48-1.252-4.164-3.11-.5-1.36-.534-2.854-.483-4.305a10.08 10.08 0 0 0 1.666.677c1.963.593 4.05.618 6.044.166 1.882-.427 4.163-1.333 5.582-2.77 1.794 2.45 4.558 4.216 7.906 4.709 5.428.798 12.89-2.207 14.249-7.862.044.056.088.112.135.168 1.446 1.715 3.641 2.578 5.75 3.146a39.947 39.947 0 0 0 7.705 1.261c4.134.267 7.786-1.233 10.13-4.3.578 1.607 1.937 3 3.5 3.742 1.745.827 3.7 1.046 5.599 1.228 2.101.2 4.193.33 6.297.078 2.8-.336 5.41-1.405 7.327-3.35 2.766 4.695 9.91 5.353 14.66 3.408a13.25 13.25 0 0 0 3.36-2.007c.651 2.294 1.175 5.075-.351 6.938zm-.559-9.97c-2.253 2.485-5.596 3.864-8.94 3.855-2.727-.006-5.706-1.114-7.118-3.486.19-.267.368-.543.532-.828a12.45 12.45 0 0 0 1.31-3.397c2.06 2.854 6.17 3.869 9.422 1.587 1.914-1.343 3.48-4.013 2.306-6.328-1.064-2.098-3.858-2.293-5.246-.487-.883 1.15 1.104 2.699 2.023 1.56.283-.35.693-.37 1.03 0 .503.548.092 1.667-.205 2.21-.644 1.176-1.847 2.005-3.132 2.33-2.57.649-4.943-.903-5.892-3.192a11.952 11.952 0 0 0-.36-3.459c3.369-.108 6.938-2.576 8.603-5.498.214.167.485.284.816.319 3.169.334 6.015 2.253 7.048 5.37 1.074 3.243.068 6.945-2.197 9.443z"/></symbol><symbol viewBox="0 0 124 124" id="dress" xmlns="http://www.w3.org/2000/svg"><path d="M116.738 101.099c.335.039.552-5.24-2.048-11.07-2.561-5.85-6.599-9.238-6.816-8.962-.315.276 3.113 3.959 5.535 9.533 2.502 5.535 2.915 10.538 3.329 10.499zM43.485 18.746c.394-2.088 1.458-3.526 1.182-3.822-.217-.295-2.029 1.005-2.541 3.546-.512 2.54.65 4.432.965 4.235.374-.138-.059-1.891.394-3.96zM14.787 27.55v.236c0 3.369.315 6.126.689 6.126.374 0 .69-2.738.69-6.125v-.217h.177c3.033 0 5.515-.315 5.515-.69 0-.374-2.462-.689-5.515-.689h-.197c-.08-2.6-.355-4.53-.67-4.53-.315 0-.59 1.93-.67 4.55-2.285.079-3.978.354-3.978.67 0 .334 1.674.59 3.959.67zm89.148 24.208v.374c0 3.624.315 6.579.689 6.579.375 0 .69-2.955.69-6.58v-.354c3.013 0 5.456-.315 5.456-.689 0-.374-2.443-.69-5.476-.69-.079-2.777-.354-4.845-.67-4.845-.315 0-.59 2.068-.669 4.865-2.462.08-4.314.335-4.314.67s1.832.59 4.294.67zm-20.603-32.52c.335-2.797-.571-4.964-.926-4.845-.394.098-.157 2.186-.453 4.687-.276 2.502-.965 4.491-.61 4.669.315.177 1.674-1.714 1.989-4.511zm-.59 5.752c.255.295 1.437-.355 2.875-1.005 1.438-.65 2.698-1.083 2.659-1.477-.02-.374-1.556-.532-3.23.216-1.675.749-2.56 1.99-2.305 2.265zM11.32 94.381c-1.36 4.767-.926 8.824-.571 8.804.413 0 .59-3.88 1.89-8.43 1.261-4.55 3.132-7.957 2.798-8.174-.276-.197-2.778 3.033-4.117 7.8z"/><path d="M123.317 97.356c-.887-6.323-5.003-13.276-10.065-19.657-5.122-6.382-10.735-12.843-16.25-18.516C91.505 53.53 86.01 48.941 81.873 45.85c-4.136-3.093-6.835-4.787-6.933-4.63-.118.158 2.364 2.148 6.263 5.477 3.9 3.328 9.14 8.075 14.38 13.846 5.239 5.752 10.734 12.37 15.639 18.713 4.845 6.342 8.588 12.98 9.336 18.534a18.275 18.275 0 0 1-.295 6.993c-.394 1.004-.65 2.068-1.123 2.954a12.158 12.158 0 0 1-1.635 2.423 12.702 12.702 0 0 1-8.47 4.432c-2.836.256-5.101-.394-6.913-1.339a27.62 27.62 0 0 1-4.373-2.64c-2.206-1.615-3.29-2.6-3.94-3.013-.059-.04-.098-.06-.157-.099.65-3.033.729-6.461.276-10.105-.552-4.944-1.91-11.246-4.196-17.648-2.245-6.401-5.416-12.842-8.607-18.515-3.21-5.673-6.422-10.597-8.785-14.123-1.458-2.167-2.6-3.782-3.31-4.708.71-.078 1.36-.177 1.911-.275 2.108-.394 3.172-.729 3.743-1.103.532-.335.492-.512.433-.69-.059-.177-.197-.334-.748-.334-.67.039-1.714.098-3.644.197-2.068.118-5.102.196-9.71.157-2.286-.02-5.024 0-8.116.099-1.556.039-3.21.098-4.983.137-.887.02-1.813.06-2.758.08-.985.019-1.89.058-2.64-.08-.689-.098-1.555-.67-2.028-1.3-.433-.65-.571-1.536-.177-2.481.354-.926 1.142-1.832 2.147-2.285.236-.138.512-.197.768-.276.295-.079.67-.138 1.004-.197.69-.118 1.399-.197 2.128-.256 5.948-.315 12.428-.748 18.239-1.142 1.458-.099 2.876-.197 4.255-.296 1.339-.059 2.796-.276 3.84-.197 2.246.177 4.137 1.674 4.61 3.25.472 1.596-.316 3.112-.966 3.802-.709.728-1.28.985-1.22 1.083.019.059.669.02 1.595-.67.472-.335.906-.925 1.28-1.654.374-.73.571-1.753.355-2.817-.473-2.167-2.66-4.117-5.457-4.53-1.496-.178-2.678-.02-4.116-.02-.237 0-.512.02-.749.02.493-.355 1.123-.887 1.91-1.655 1.459-1.497 3.586-3.9 5.359-8.273.413-1.103.827-2.422.827-3.959a9.835 9.835 0 0 0-1.182-4.668c-1.438-2.816-4.767-5.121-8.765-5.18.059-.414.078-.985.04-1.793C66.135 3.54 65.328.25 64.56.29c-.749.06-1.182 3.408-1.103 4.964.039.867.138 1.458.275 1.871-.847.197-1.713.473-2.54.906-1.222.63-2.344 1.497-3.35 2.403-.885.808-2.442 2.147-2.048 1.813.217.157-.689-.473-1.26-.808-.61-.394-1.26-.788-1.93-1.162-1.832-1.005-3.96-1.97-6.264-2.226.079-.433.118-1.024.079-1.91-.08-1.557-.887-4.846-1.655-4.807-.768.04-1.201 3.408-1.123 4.964.04.808.138 1.36.237 1.773-.197.02-.394.04-.591.079-1.694.354-3.23 1.24-4.392 2.383-.63.512-1.084 1.24-1.557 1.89-.354.73-.788 1.439-.925 2.207-.887 3.092-.099 6.027.827 8.351.965 2.364 2.245 4.255 3.427 5.732a20.65 20.65 0 0 0 2.837 2.876 7.84 7.84 0 0 0-.847.157 6.86 6.86 0 0 0-4.866 4.117c-.689 1.576-.551 3.605.434 5.023a5.817 5.817 0 0 0 1.733 1.615c.571.374 1.379.729 2.049.827.039 0 .078 0 .098.02-1.103.926-2.659 2.364-4.59 4.215-3.683 3.546-8.548 8.706-13.511 14.753-4.964 6.047-9.928 13.06-14.222 19.894C5.43 89.005 1.905 96.056.861 102.182c-.532 2.757-.591 5.495-.119 7.997.138 1.26.611 2.423.926 3.565.532 1.083.906 2.147 1.537 3.112 2.462 3.841 6.086 5.988 9.395 6.618 3.388.631 6.244-.177 8.292-1.083 2.088-.946 3.566-1.989 4.708-2.876 2.245-1.812 3.19-2.974 3.644-3.624.098-.138.157-.256.197-.355.138.296.236.631.394.906 1.812 3.546 5.18 5.791 8.292 6.047 1.537.178 2.955-.078 4.156-.472 1.221-.375 2.206-.946 3.053-1.497a14.14 14.14 0 0 0 3.546-3.467c1.103-1.595 1.556-2.758 1.753-3.545a19.61 19.61 0 0 0 4.117 4.628c2.225 1.793 5.377 2.935 8.528 2.581 3.171-.276 6.126-2.068 8.135-4.511.847-1.004 1.517-2.127 2.088-3.289.335.65.867 1.438 1.773 2.383a9.408 9.408 0 0 0 4.254 2.383c1.95.532 4.51.414 7.091-.748 1.241-.552 2.64-1.418 3.782-2.679 1.142-1.241 2.029-2.836 2.64-4.609.098-.295.157-.63.236-.945.512.709 1.418 1.792 3.21 3.387a25.274 25.274 0 0 0 4.531 3.132c1.93 1.143 4.845 2.088 8.174 1.832 3.329-.217 7.308-1.733 10.321-5.2a14.941 14.941 0 0 0 2.009-2.915c.611-1.083.906-2.285 1.359-3.486.69-2.482.867-5.26.434-8.096zM41.535 28.042c-1.005-1.497-2.088-3.387-2.836-5.633-.73-2.206-1.222-4.845-.414-7.229.138-.61.512-1.142.788-1.694.413-.472.748-1.024 1.28-1.418a6.697 6.697 0 0 1 3.368-1.694c2.521-.413 5.24.71 7.623 2.108.61.354 1.201.729 1.773 1.123a489.72 489.72 0 0 0 2.265 1.556l.413.295c.08.079.138.04.197-.02l.197-.157.808-.61 1.064-.867c.512-.454 1.024-.887 1.536-1.32 1.91-1.714 3.762-2.64 5.614-2.817a7.59 7.59 0 0 1 4.49.906 7.052 7.052 0 0 1 2.837 2.797 7.3 7.3 0 0 1 .926 3.368c.02 1.064-.237 2.108-.572 3.073-1.457 3.96-3.25 6.303-4.412 7.86-1.477 1.772-2.107 2.58-2.324 2.993-.552.02-1.083.02-1.655.04-5.87.177-12.27.374-18.318.551-.65.04-1.28.118-1.93.197a25.99 25.99 0 0 1-2.718-3.408zm-14.221 75.696c-.06 4.136.551 7.898 1.87 11.109-.137.02-.334.098-.65.276-.669.374-1.772 1.3-4.037 2.816-1.142.729-2.56 1.616-4.452 2.344-1.87.709-4.234 1.281-6.913.709-2.64-.571-5.634-2.383-7.623-5.554-.492-.768-.827-1.733-1.28-2.639-.256-.985-.67-1.97-.768-3.073-.394-2.147-.335-4.55.137-7.052.926-5.554 4.196-12.33 8.372-19.106 4.136-6.854 8.863-13.886 13.59-20.032a237.547 237.547 0 0 1 12.744-15.225c1.97-2.167 3.507-3.822 4.452-4.885.926.079 1.733.04 2.462.02.867-.04 1.714-.06 2.521-.099-.61.985-1.674 2.895-3.072 5.515A240.508 240.508 0 0 0 37.044 64.6c-2.718 6.283-5.397 13.315-7.15 20.229-1.733 6.913-2.58 13.63-2.58 18.909zm22.474 8.726c-.374.531-.926 1.635-2.403 3.388-.768.847-1.793 1.851-3.25 2.737-1.458.847-3.427 1.675-5.693 1.379-2.225-.276-4.688-1.832-6.184-4.786-1.517-2.935-2.266-6.914-2.187-11.444 0-5.043.729-11.543 2.324-18.299 1.576-6.775 4.019-13.787 6.48-20.09 2.502-6.304 5.004-11.937 6.796-16.034 1.26-2.856 2.147-4.963 2.502-5.988 1.713-.059 3.328-.118 4.825-.177.158 0 .316-.02.473-.02-.354.965-.906 2.975-1.871 7.21-.886 3.939-2.285 9.73-3.802 18.495-.728 4.392-1.457 9.533-1.733 15.56-.197 5.949-.65 12.922 1.162 20.8.552 2.246 1.399 4.708 2.718 7.072-.059.059-.098.118-.157.197zm19.716 2.107c-1.693 1.99-4.037 3.349-6.46 3.526a8.211 8.211 0 0 1-3.526-.414c-1.123-.354-2.166-.945-3.092-1.674-3.703-3.033-5.594-7.544-6.52-11.444-1.694-7.288-1.32-14.103-1.142-20.032.236-5.889.886-10.931 1.536-15.284 1.36-8.667 2.56-14.537 3.21-18.516.769-4.628.966-6.697.926-7.642 2.482-.099 4.649-.158 6.599-.197.512-.02 1.004-.02 1.477-.04.099.532.236 1.261.434 2.187a370.17 370.17 0 0 0 1.97 8.509c1.713 7.17 4.273 16.999 6.282 28.01.473 2.757.926 5.573 1.28 8.43.355 2.895.73 5.81.907 8.706.157 2.895.098 5.79-.473 8.548-.571 2.718-1.674 5.338-3.408 7.327zm21.017-5.771c-.985 3.033-2.817 4.885-4.924 5.83-2.068.985-3.998 1.143-5.515.828a7.899 7.899 0 0 1-3.467-1.616c-1.32-1.103-1.97-1.969-2.383-2.501a21.696 21.696 0 0 0 1.044-3.624c.61-3.053.59-6.165.394-9.18-.237-3.013-.67-5.948-1.064-8.843a156.76 156.76 0 0 0-1.477-8.529c-2.285-11.07-5.141-20.84-7.17-27.91-1.044-3.526-1.89-6.382-2.462-8.372-.276-.886-.473-1.556-.65-2.048a86.243 86.243 0 0 0 5.752-.374c.492 1.004 1.496 2.816 2.855 5.22 2.088 3.683 5.023 8.765 7.978 14.477 2.935 5.731 5.87 12.133 7.918 18.416 2.088 6.264 3.329 12.35 3.86 17.137.532 4.274.296 8.095-.689 11.089z"/></symbol><symbol viewBox="0 0 123 123" id="letter" xmlns="http://www.w3.org/2000/svg"><path d="M50.026 76.365c2.418 2.037 5.066 3.797 7.627 5.5 8.277 5.502 7.37 5.727 8.356 5.727.303 0 .597-.103.834-.292 16.392-13.1 18.254-14.305 20.602-17.581 3.11-4.34 4.024-10.029 2.385-14.85-1.733-5.098-6.345-9.001-11.475-9.711-2.584-.36-5.336.127-7.75 1.368-1.468.755-3.674 3.39-4.27 3.091-1.282-.627-2.024-2.485-6.485-3.727-9.98-2.788-18.327 5.05-18.746 13.494-.392 7.902 5.422 14.03 8.922 16.98zm12.136-26.623c.365.213.745.551 1.146.91 2.346 2.091 3.625 2.55 6.96-.501.551-.504 1.12-1.024 1.557-1.249 6.304-3.24 13.357.596 15.477 6.827 1.365 4.02.588 8.783-2.028 12.433-2.071 2.89-3.807 4.032-19.25 16.374-4.57-3.686-9.935-6.554-14.276-10.215-3.123-2.63-8.312-8.053-7.977-14.804.432-8.706 10.04-14.65 18.391-9.775zM112.645 8.06c-.507.344-.88.86-1.236 1.247-7.502-5.064-16.716 6.497-5.869 13.597 2.202 1.443 4.842 2.455 6.893 3.808a1.338 1.338 0 0 0 1.689-.179c6.021-6.134 6.986-6.97 7.875-8.59 1.201-2.192 1.303-4.895.265-7.055-1.68-3.49-6.129-5.191-9.617-2.828zm7.009 8.599c-.646 1.177-1.264 1.713-6.689 7.24-3.107-1.822-9.391-3.924-9.713-8.444-.125-1.756.999-3.612 2.614-4.316h.001c1.014-.443 2.338-.47 3.526.044.312.135.749.586 1.424.823 1.79.618 2.888-1.429 3.327-1.734 3.453-2.342 7.898 2.03 5.51 6.387z"/><path d="M28.292 122.499c5.885.105 80.751.536 75.928.536.745 0 1.345-.609 1.336-1.351-.353-29.785 1.028-59.443 1.026-90.332a1.152 1.152 0 0 0-.374-.847c-.656-.61-.236-.432-7.645.047.543-8.83-7.51-15.133-15.157-12.365-.648-3.687-1.247-6.247-1.582-9.758a1.343 1.343 0 0 0-.503-.918 1.318 1.318 0 0 0-1.526-.417 994.823 994.823 0 0 1-52.888 19.551c-.793.339-1.5.85-2.07 1.497a5.798 5.798 0 0 0-1.288 2.508c-.245 4.4.271 59.056 1.091 88.843.012.444.14.879.39 1.247.315.468.726.865 1.205 1.163.858.53 1.688.591 2.057.596zm67.572-91.776c-13.43.805-24.26.957-34.298.495.385-6.407 6.78-10.744 13.157-8.054 1.644.714 3.27 3.431 6.44-.154.586-.67 1.068-1.24 1.369-1.441 6.104-4.122 14.07 1.263 13.332 9.154zm-16.53-20.575c.426 3.452 1.029 5.995 1.58 9.313-.799.587-2.245 2.457-2.71 2.69-.455-.156-.993-.624-1.747-1.08-5.801-4.247-14.155-2.582-17.753 4.645-.72 1.447-1.575 3.727-1.258 5.262-8.929-.57-17.253-1.649-25.207-3.325a998.902 998.902 0 0 0 47.094-17.505zm-50.806 19.42c26.972 6.264 51.308 4.615 75.382 3.3-.041 29.706-1.334 58.613-1.04 87.472-23.174-.381-50.113-.107-73.244-.489-.581-30.502-1.238-61.464-1.098-90.284z"/><path d="M82.411 92.729h-36.03a1.336 1.336 0 0 0 0 2.67h36.03a1.336 1.336 0 0 0 0-2.67zM69.9 102.567H57.695a1.336 1.336 0 0 0 0 2.671H69.9a1.336 1.336 0 0 0 0-2.671zM19.062 29.721a1.336 1.336 0 0 0-.521-1.816l-9.533-5.279a1.338 1.338 0 0 0-1.816.522 1.336 1.336 0 0 0 .522 1.816l9.533 5.279a1.337 1.337 0 0 0 1.816-.522zm2.941-4.311a1.336 1.336 0 0 0 .965-1.625 33.14 33.14 0 0 0-3.958-9.303 1.334 1.334 0 1 0-2.27 1.409 30.444 30.444 0 0 1 3.64 8.553 1.337 1.337 0 0 0 1.623.966zm5.348-3.53a1.336 1.336 0 0 0 1.33-1.242l.594-8.31a1.336 1.336 0 0 0-1.238-1.427 1.352 1.352 0 0 0-1.427 1.238l-.593 8.31a1.336 1.336 0 0 0 1.334 1.43z"/></symbol><symbol viewBox="0 0 90 110" id="note" xmlns="http://www.w3.org/2000/svg"><path d="M86.939 10.814c-.666-1.475-6.5-1.299-4.745-.072 11.62-5.745 1.147 55.875 3.383 64.253-1.682 7.708 5.252 27.565-5.273 29.189-16.838.971-33.729 2.621-50.654 1.988-5.288.712-11.832-.88-10.609-7.614 18.76 2.579 38.15 3.12 56.744-.874 11.32-2.285 6.387-15.936 6.895-24.124-1.738-22.166 2.014-45.19-2.497-66.93-6.921-10.619-32.561-4.05-44.378-5.45C18.62 1.23 3.425.983 8.102 23.286c-1.185.295-6.898 1.187-4.587 2.723 4.02.05 9.076-2.934 12.571-.36 3.364 4.583-14.537 8.467-13.14 2.727.38-10.914-9.728 8.096 5.712 4.479.12 2.158.228 4.32.282 6.484-1.331.302-7.713 1.108-5.427 2.86 3.34-.158 15.98-4.265 12.034 2.779-2.76 1.475-12.784 5.133-12.602-.414.013-1.034.752-3.184-.946-3.306-1.56-.111-1.874 2.194-1.97 3.306-.494 5.326 5.454 5.34 9.188 4.394.059 2.15.143 4.297.252 6.445-1.241.232-8.508 1.23-5.954 2.937 17.84-4.853 16.65 5.774.565 5.04-2.518-1.204.529-5.292-2.081-5.979-1.56-.113-1.874 2.194-1.97 3.306-.48 5.558 5.785 5.252 9.593 4.335-.03 2.176-.069 4.358-.1 6.541-1.253.232-8.56 1.224-6.007 2.945 4.018.05 9.076-2.934 12.571-.36 3.364 4.583-14.537 8.466-13.14 2.727.384-11.03-10.226 8.741 6.883 4.302.476 5.542-.465 14.037 5.728 16.562-3.338 20.816 50.992 8.61 63.68 9.36 14.23.047 8.428-18.632 9.144-27.694-.165-13.295.459-26.587.756-39.877-.727-9.247 2.993-20.649-2.197-28.736l-.001.002zM14.066 80.442a.644.644 0 0 0-.018-.096c6.26-1.672 4.13-9.689-2.016-8.97-.18-2.215-.36-4.43-.486-6.647 8.245-.268 8.49-10.35-.189-9.524 0-2.193-.01-4.386-.027-6.58 8.566-.205 8.737-10.581-.237-9.545a594.37 594.37 0 0 0-.295-6.547c9.479-.11 9.245-11.22-.486-9.576-2.406-13.332 2.583-20.02 16.53-18.829C40.255 5.218 67.074-.35 77.339 6.803c4.727 21.868.612 45.245 2.153 67.637-1.066 6.061 3.605 16.448-3.349 19.515-18.778 4.17-38.491 3.144-57.4.28a1.7 1.7 0 0 0-1.696-.431c-3.679-2.76-2.53-9.155-2.98-13.362z"/><path d="M24.614 29.61c1.242 6.484 10.45 3.103 14.897 2.46 3.196-5.503-7.331-1.667-9.905-1.656-5.069-.104-.22-10.9-3.015-12.544-3.88 1.016-2.052 8.472-1.977 11.74z"/><path d="M26.814 17.327c12.066 2.35 15.039-5.93 14.476 11.952 4.644 4.333 2.946-13.094-.274-14.017-4.2-3.034-9.094.396-13.639-.016-1.097-.144-1.525 1.622-.563 2.081zm22.674 1.135c2.86-.782 22.141 1.148 19.073-3.358-1.525-.642-25.777-.148-19.073 3.358zm16.66 5.83c1.27.082 3.147-.979 2.04-2.366-3.866-1.755-9.014-.12-13.243-.234-6.709-.318-7 3.909 0 2.997 3.734-.067 7.479-.133 11.202-.398zm-4.197 6.827c2.047-.155 6.15 1.552 6.73-1.282-.244-3.909-15.151-.105-6.73 1.282zM24.614 54.917c1.242 6.483 10.45 3.101 14.897 2.459 3.196-5.504-7.331-1.667-9.905-1.658-5.069-.103-.22-10.899-3.015-12.543-3.88 1.015-2.054 8.472-1.978 11.74l.002.002z"/><path d="M41.016 40.566c-4.2-3.033-9.094.395-13.639-.015-1.097-.144-1.525 1.622-.563 2.081 3.934 2.26 8.3-1.244 12.33.162 3.712 2.459 1.4 8.148 2.148 11.788 4.642 4.335 2.944-13.094-.276-14.017zm8.472 3.2c2.86-.781 22.141 1.149 19.073-3.357-1.525-.644-25.777-.15-19.073 3.356zm16.66 5.83c1.27.083 3.147-.978 2.04-2.365-1.217-1.361-22.479-1.095-17.777 2.515 5.155.696 10.524-.006 15.736-.15zm-4.197 6.828c2.047-.156 6.15 1.553 6.73-1.282-.244-3.909-15.151-.105-6.73 1.282zM24.614 80.221c1.242 6.484 10.45 3.1 14.897 2.46 3.196-5.504-7.331-1.667-9.905-1.658-5.069-.105-.22-10.898-3.015-12.544-3.88 1.016-2.052 8.472-1.977 11.742z"/><path d="M41.015 65.87c-4.2-3.034-9.094.396-13.64-.014-1.096-.143-1.525 1.621-.562 2.081 3.933 2.26 8.299-1.244 12.33.162 3.712 2.46 1.399 8.148 2.147 11.789 4.642 4.334 2.944-13.095-.275-14.017zm8.471 3.202c2.86-.782 22.142 1.146 19.074-3.358-1.526-.644-25.777-.147-19.074 3.357v.001zm14.284 5.97c1.57-.045 5.867.088 4.417-2.505-5.33-1.662-12.223-.342-17.776.44-3.432 4.364 11.064 1.588 13.359 2.065zm3.732 3.905a20.407 20.407 0 0 0-7.812.808c-2.619 3.111 13.836 3.28 7.812-.808z"/></symbol></svg>